<svg width="244" height="243" viewBox="0 0 244 243" fill="none" xmlns="http://www.w3.org/2000/svg">
<g filter="url(#filter0_d)">
<path fill-rule="evenodd" clip-rule="evenodd" d="M215.084 178.361L27.0152 61.7168C45.1279 33.0367 76.2715 12.9759 112.885 10.2431C173.997 5.68178 227.205 51.1222 231.729 111.737C233.546 136.073 227.239 159.154 215.084 178.361Z" fill="white" fill-opacity="0.77"/>
<path fill-rule="evenodd" clip-rule="evenodd" d="M131.191 229.547C192.257 224.409 237.629 171.143 232.533 110.573C227.437 50.0035 173.802 5.06723 112.736 10.205C112.708 10.2074 112.68 10.2098 112.652 10.2122C112.651 10.2122 112.651 10.2123 112.65 10.2123C76.0827 13.2889 45.1424 33.624 27.297 62.4508L27.3562 62.4868C15.4184 81.7904 9.35082 104.898 11.3937 129.179C16.4898 189.748 70.1247 234.685 131.191 229.547ZM27.3562 62.4868L216.458 177.316C228.414 158.003 234.492 134.879 232.447 110.58C227.351 50.0112 173.717 5.07503 112.652 10.2122C76.1025 13.3147 45.1836 33.6593 27.3562 62.4868Z" fill="black" fill-opacity="0.87"/>
</g>
<path d="M57.8678 104.681C58.2452 104.001 58.7924 103.548 59.5095 103.322C60.2266 103.096 61.1135 102.982 62.1702 102.982C63.2647 102.982 64.1327 103.077 64.7743 103.265C65.4536 103.454 65.9442 103.681 66.2462 103.945C66.5858 104.209 66.8312 104.605 66.9821 105.134C67.2086 105.737 67.3218 106.7 67.3218 108.021V139.44C67.3218 140.345 67.284 141.006 67.2086 141.421C67.1708 141.836 67.001 142.327 66.6991 142.893C66.1707 143.912 64.6988 144.421 62.2834 144.421C60.8115 144.421 59.7925 144.308 59.2264 144.082C58.6603 143.855 58.1886 143.497 57.8112 143.006C49.3195 131.684 43.7339 124.287 41.0544 120.815V139.44C41.0544 140.345 41.0166 141.006 40.9411 141.421C40.9034 141.836 40.7336 142.327 40.4316 142.893C39.9033 143.912 38.4314 144.421 36.016 144.421C33.6761 144.421 32.2419 143.912 31.7136 142.893C31.4116 142.327 31.2229 141.817 31.1475 141.364C31.1097 140.912 31.0908 140.251 31.0908 139.383V107.794C31.0908 106.36 31.2607 105.322 31.6003 104.681C31.9778 104.001 32.525 103.548 33.2421 103.322C33.9591 103.096 34.8838 102.982 36.016 102.982C37.1482 102.982 38.0351 103.096 38.6767 103.322C39.356 103.511 39.8278 103.737 40.092 104.001C40.2429 104.115 40.6769 104.605 41.394 105.473C49.3573 116.305 54.6787 123.457 57.3583 126.929V107.794C57.3583 106.36 57.5281 105.322 57.8678 104.681ZM70.986 129.533C70.986 125.004 72.5711 121.268 75.7413 118.324C78.9115 115.38 82.5346 113.908 86.6106 113.908C90.6866 113.908 94.2908 115.38 97.4233 118.324C100.556 121.23 102.122 124.947 102.122 129.476C102.122 132.609 101.311 135.401 99.6877 137.855C98.0648 140.27 96.0835 142.063 93.7436 143.233C91.4414 144.365 89.0449 144.931 86.554 144.931C84.0631 144.931 81.6477 144.327 79.3078 143.119C76.9679 141.874 74.9865 140.062 73.3637 137.685C71.7786 135.269 70.986 132.552 70.986 129.533ZM82.8177 133.609C84.0254 134.515 85.2519 134.967 86.4974 134.967C87.7428 134.967 88.9882 134.496 90.2337 133.552C91.4791 132.609 92.1018 131.212 92.1018 129.363C92.1018 127.514 91.5169 126.136 90.3469 125.23C89.1769 124.325 87.9126 123.872 86.554 123.872C85.1953 123.872 83.931 124.343 82.7611 125.287C81.5911 126.231 81.0061 127.627 81.0061 129.476C81.0061 131.288 81.61 132.665 82.8177 133.609ZM115.12 129.533C115.12 131.118 115.649 132.363 116.705 133.269C117.762 134.137 118.876 134.571 120.045 134.571C121.253 134.571 122.367 134.231 123.386 133.552C124.442 132.835 125.291 132.477 125.933 132.477C127.065 132.477 128.443 133.477 130.066 135.477C130.934 136.571 131.368 137.553 131.368 138.421C131.368 139.855 130.33 141.195 128.254 142.44C126.103 143.95 123.461 144.705 120.329 144.705C116.819 144.705 113.441 143.44 110.195 140.912C108.648 139.704 107.384 138.1 106.402 136.1C105.421 134.062 104.93 131.835 104.93 129.42C104.93 126.966 105.421 124.759 106.402 122.796C107.384 120.796 108.648 119.192 110.195 117.984C113.328 115.493 116.668 114.248 120.215 114.248C121.649 114.248 123.046 114.455 124.405 114.871C125.763 115.248 126.763 115.625 127.405 116.003L128.311 116.569C128.99 117.022 129.518 117.38 129.896 117.645C130.877 118.399 131.368 119.267 131.368 120.249C131.368 121.192 130.971 122.268 130.179 123.475C128.82 125.551 127.518 126.589 126.273 126.589C125.556 126.589 124.537 126.174 123.216 125.344C122.536 124.702 121.555 124.381 120.272 124.381C119.026 124.381 117.857 124.834 116.762 125.74C115.668 126.646 115.12 127.91 115.12 129.533ZM151.795 124.608L148.115 124.381V132.194C148.115 133.213 148.266 133.948 148.568 134.401C148.908 134.854 149.512 135.081 150.38 135.081C151.285 135.081 151.965 135.118 152.418 135.194C152.908 135.232 153.418 135.401 153.946 135.703C154.814 136.194 155.248 137.458 155.248 139.496C155.248 141.874 154.72 143.327 153.663 143.855C153.097 144.12 152.587 144.289 152.135 144.365C151.719 144.403 151.097 144.421 150.266 144.421C146.341 144.421 143.36 143.535 141.322 141.761C139.284 139.987 138.265 136.987 138.265 132.76V124.381C137.548 124.494 136.774 124.551 135.944 124.551C135.114 124.551 134.415 124.23 133.849 123.589C133.321 122.947 133.057 121.853 133.057 120.305C133.057 118.758 133.151 117.645 133.34 116.965C133.528 116.248 133.793 115.739 134.132 115.437C134.736 114.946 135.491 114.701 136.397 114.701L138.265 114.927V109.096C138.265 108.228 138.284 107.587 138.321 107.172C138.397 106.756 138.586 106.303 138.888 105.813C139.378 104.869 140.831 104.398 143.247 104.398C145.813 104.398 147.341 105.096 147.832 106.492C148.021 107.096 148.115 108.058 148.115 109.379V114.927C149.776 114.776 151.021 114.701 151.851 114.701C152.72 114.701 153.361 114.739 153.776 114.814C154.229 114.852 154.739 115.022 155.305 115.323C156.286 115.814 156.777 117.267 156.777 119.683C156.777 122.06 156.267 123.513 155.248 124.042C154.682 124.306 154.173 124.476 153.72 124.551C153.304 124.589 152.663 124.608 151.795 124.608ZM159.053 129.533C159.053 125.004 160.639 121.268 163.809 118.324C166.979 115.38 170.602 113.908 174.678 113.908C178.754 113.908 182.358 115.38 185.491 118.324C188.623 121.23 190.189 124.947 190.189 129.476C190.189 132.609 189.378 135.401 187.755 137.855C186.132 140.27 184.151 142.063 181.811 143.233C179.509 144.365 177.112 144.931 174.621 144.931C172.131 144.931 169.715 144.327 167.375 143.119C165.035 141.874 163.054 140.062 161.431 137.685C159.846 135.269 159.053 132.552 159.053 129.533ZM170.885 133.609C172.093 134.515 173.319 134.967 174.565 134.967C175.81 134.967 177.056 134.496 178.301 133.552C179.547 132.609 180.169 131.212 180.169 129.363C180.169 127.514 179.584 126.136 178.414 125.23C177.244 124.325 175.98 123.872 174.621 123.872C173.263 123.872 171.998 124.343 170.828 125.287C169.659 126.231 169.074 127.627 169.074 129.476C169.074 131.288 169.677 132.665 170.885 133.609ZM210.434 114.588C214.208 114.588 217.34 116.041 219.831 118.947C222.36 121.815 223.624 125.325 223.624 129.476V139.44C223.624 140.308 223.587 140.968 223.511 141.421C223.473 141.836 223.322 142.308 223.058 142.836C222.53 143.855 221.058 144.365 218.643 144.365C215.963 144.365 214.416 143.667 214 142.27C213.774 141.629 213.661 140.666 213.661 139.383V129.42C213.661 127.872 213.208 126.665 212.302 125.796C211.434 124.928 210.245 124.494 208.736 124.494C207.264 124.494 206.056 124.947 205.113 125.853C204.207 126.759 203.754 127.948 203.754 129.42V139.44C203.754 140.308 203.716 140.968 203.641 141.421C203.603 141.836 203.433 142.308 203.131 142.836C202.641 143.855 201.188 144.365 198.772 144.365C196.394 144.365 194.941 143.855 194.413 142.836C194.149 142.27 193.979 141.78 193.904 141.364C193.866 140.912 193.847 140.251 193.847 139.383V119.343C193.847 118.513 193.866 117.89 193.904 117.475C193.979 117.022 194.168 116.531 194.47 116.003C194.998 115.059 196.451 114.588 198.829 114.588C201.131 114.588 202.546 115.022 203.075 115.89C203.452 116.531 203.641 117.305 203.641 118.211C203.792 117.946 204.131 117.569 204.66 117.078C205.188 116.588 205.698 116.192 206.188 115.89C207.471 115.022 208.887 114.588 210.434 114.588Z" fill="white"/>
<path fill-rule="evenodd" clip-rule="evenodd" d="M129.746 123.985L115.336 115.048C117.018 114.404 118.753 114.081 120.542 114.081C121.951 114.081 123.323 114.285 124.658 114.693C125.994 115.064 126.977 115.435 127.607 115.806L128.497 116.362C129.165 116.807 129.684 117.16 130.055 117.419C131.019 118.161 131.501 119.014 131.501 119.978C131.501 120.906 131.112 121.963 130.333 123.149C130.136 123.45 129.94 123.729 129.746 123.985ZM154.951 139.618L138.279 129.278V124.04C137.575 124.151 136.814 124.207 135.998 124.207C135.183 124.207 134.496 123.891 133.94 123.261C133.421 122.63 133.161 121.555 133.161 120.034C133.161 118.513 133.254 117.419 133.439 116.752C133.625 116.047 133.884 115.546 134.218 115.25C134.812 114.767 135.553 114.526 136.444 114.526L138.279 114.749V109.019C138.279 108.166 138.298 107.535 138.335 107.127C138.409 106.719 138.595 106.274 138.891 105.792C139.374 104.865 140.801 104.401 143.175 104.401C145.697 104.401 147.199 105.087 147.681 106.46C147.867 107.053 147.96 107.999 147.96 109.297V114.749C149.591 114.601 150.815 114.526 151.631 114.526C152.484 114.526 153.115 114.563 153.523 114.638C153.968 114.675 154.469 114.842 155.025 115.138C155.989 115.62 156.471 117.048 156.471 119.422C156.471 121.759 155.971 123.187 154.969 123.706C154.413 123.965 153.912 124.132 153.467 124.207C153.059 124.244 152.429 124.262 151.576 124.262L147.96 124.04V131.717C147.96 132.718 148.108 133.442 148.405 133.887C148.738 134.332 149.332 134.554 150.185 134.554C151.075 134.554 151.743 134.591 152.188 134.666C152.67 134.703 153.171 134.869 153.69 135.166C154.543 135.648 154.969 136.891 154.969 138.894C154.969 139.146 154.963 139.387 154.951 139.618ZM163.382 118.087C160.267 120.98 158.709 124.652 158.709 129.102C158.709 132.069 159.488 134.74 161.045 137.113C162.64 139.45 164.587 141.23 166.887 142.454C169.186 143.641 171.56 144.234 174.008 144.234C176.456 144.234 178.811 143.678 181.073 142.565C183.373 141.416 185.32 139.654 186.915 137.28C188.51 134.869 189.307 132.125 189.307 129.047C189.307 124.596 187.768 120.943 184.689 118.087C181.611 115.194 178.069 113.748 174.064 113.748C170.058 113.748 166.498 115.194 163.382 118.087ZM173.952 134.443C172.728 134.443 171.523 133.998 170.336 133.108C169.149 132.181 168.556 130.827 168.556 129.047C168.556 127.229 169.131 125.857 170.281 124.93C171.43 124.003 172.673 123.539 174.008 123.539C175.343 123.539 176.586 123.984 177.735 124.874C178.885 125.764 179.46 127.118 179.46 128.935C179.46 130.753 178.848 132.125 177.624 133.052C176.4 133.979 175.176 134.443 173.952 134.443ZM218.437 118.699C215.989 115.843 212.911 114.415 209.202 114.415C207.681 114.415 206.29 114.842 205.029 115.695C204.547 115.991 204.047 116.381 203.527 116.863C203.008 117.345 202.674 117.716 202.526 117.976C202.526 117.085 202.34 116.325 201.97 115.695C201.45 114.842 200.06 114.415 197.797 114.415C195.461 114.415 194.033 114.879 193.513 115.806C193.217 116.325 193.031 116.807 192.957 117.252C192.92 117.66 192.901 118.272 192.901 119.088V138.782C192.901 139.635 192.92 140.284 192.957 140.73C193.031 141.137 193.198 141.62 193.458 142.176C193.977 143.177 195.405 143.678 197.742 143.678C200.115 143.678 201.543 143.177 202.025 142.176C202.322 141.657 202.489 141.193 202.526 140.785C202.6 140.34 202.637 139.691 202.637 138.838V128.991C202.637 127.544 203.082 126.376 203.972 125.486C204.9 124.596 206.086 124.151 207.533 124.151C209.016 124.151 210.185 124.577 211.038 125.43C211.928 126.283 212.373 127.47 212.373 128.991V138.782C212.373 140.043 212.484 140.989 212.707 141.62C213.115 142.992 214.635 143.678 217.269 143.678C219.642 143.678 221.089 143.177 221.608 142.176C221.868 141.657 222.016 141.193 222.053 140.785C222.127 140.34 222.164 139.691 222.164 138.838V129.047C222.164 124.967 220.922 121.518 218.437 118.699Z" fill="black"/>
<defs>
<filter id="filter0_d" x="0.362268" y="0.902222" width="243.203" height="241.556" filterUnits="userSpaceOnUse" color-interpolation-filters="sRGB">
<feFlood flood-opacity="0" result="BackgroundImageFix"/>
<feColorMatrix in="SourceAlpha" type="matrix" values="0 0 0 0 0 0 0 0 0 0 0 0 0 0 0 0 0 0 127 0"/>
<feOffset dy="1.80424"/>
<feGaussianBlur stdDeviation="0.902118"/>
<feColorMatrix type="matrix" values="0 0 0 0 0 0 0 0 0 0 0 0 0 0 0 0 0 0 0.25 0"/>
<feBlend mode="normal" in2="BackgroundImageFix" result="effect1_dropShadow"/>
<feBlend mode="normal" in="SourceGraphic" in2="effect1_dropShadow" result="shape"/>
</filter>
</defs>
</svg>
