<svg width="222" height="221" viewBox="0 0 222 221" fill="none" xmlns="http://www.w3.org/2000/svg">
<ellipse cx="110.96" cy="110.06" rx="110.96" ry="110.06" fill="#151515"/>
<path d="M41.0414 93.2592C41.4188 92.5799 41.966 92.127 42.6831 91.9005C43.4001 91.6741 44.287 91.5609 45.3438 91.5609C46.4383 91.5609 47.3063 91.6552 47.9479 91.8439C48.6272 92.0326 49.1178 92.2591 49.4198 92.5233C49.7594 92.7874 50.0047 93.1837 50.1557 93.7121C50.3821 94.3159 50.4954 95.2783 50.4954 96.5992V128.018C50.4954 128.924 50.4576 129.584 50.3821 130C50.3444 130.415 50.1746 130.905 49.8726 131.472C49.3443 132.491 47.8724 133 45.457 133C43.9851 133 42.9661 132.887 42.4 132.66C41.8339 132.434 41.3621 132.075 40.9847 131.585C32.4931 120.263 26.9075 112.865 24.2279 109.393V128.018C24.2279 128.924 24.1902 129.584 24.1147 130C24.077 130.415 23.9071 130.905 23.6052 131.472C23.0769 132.491 21.605 133 19.1896 133C16.8497 133 15.4155 132.491 14.8872 131.472C14.5852 130.905 14.3965 130.396 14.321 129.943C14.2833 129.49 14.2644 128.83 14.2644 127.962V96.3728C14.2644 94.9387 14.4343 93.9008 14.7739 93.2592C15.1513 92.5799 15.6986 92.127 16.4156 91.9005C17.1327 91.6741 18.0574 91.5609 19.1896 91.5609C20.3218 91.5609 21.2087 91.6741 21.8503 91.9005C22.5296 92.0892 23.0014 92.3157 23.2656 92.5799C23.4165 92.6931 23.8505 93.1837 24.5676 94.0518C32.5309 104.883 37.8523 112.035 40.5319 115.507V96.3728C40.5319 94.9387 40.7017 93.9008 41.0414 93.2592ZM54.1596 118.111C54.1596 113.582 55.7447 109.846 58.9149 106.902C62.0851 103.959 65.7082 102.487 69.7842 102.487C73.8602 102.487 77.4644 103.959 80.5968 106.902C83.7293 109.808 85.2955 113.526 85.2955 118.055C85.2955 121.187 84.4841 123.98 82.8613 126.433C81.2384 128.849 79.257 130.641 76.9171 131.811C74.615 132.943 72.2184 133.509 69.7276 133.509C67.2367 133.509 64.8213 132.906 62.4814 131.698C60.1415 130.453 58.1601 128.641 56.5372 126.263C54.9521 123.848 54.1596 121.131 54.1596 118.111ZM65.9912 122.187C67.1989 123.093 68.4255 123.546 69.671 123.546C70.9164 123.546 72.1618 123.074 73.4073 122.131C74.6527 121.187 75.2754 119.791 75.2754 117.942C75.2754 116.092 74.6904 114.715 73.5205 113.809C72.3505 112.903 71.0862 112.45 69.7276 112.45C68.3689 112.45 67.1046 112.922 65.9346 113.866C64.7647 114.809 64.1797 116.205 64.1797 118.055C64.1797 119.866 64.7835 121.244 65.9912 122.187ZM98.2939 118.111C98.2939 119.696 98.8223 120.942 99.879 121.848C100.936 122.716 102.049 123.15 103.219 123.15C104.427 123.15 105.54 122.81 106.559 122.131C107.616 121.414 108.465 121.055 109.107 121.055C110.239 121.055 111.616 122.055 113.239 124.055C114.107 125.15 114.541 126.131 114.541 126.999C114.541 128.433 113.503 129.773 111.428 131.019C109.276 132.528 106.635 133.283 103.502 133.283C99.9922 133.283 96.6145 132.019 93.3688 129.49C91.8214 128.282 90.5571 126.678 89.5758 124.678C88.5946 122.64 88.104 120.414 88.104 117.998C88.104 115.545 88.5946 113.337 89.5758 111.375C90.5571 109.374 91.8214 107.77 93.3688 106.563C96.5012 104.072 99.8413 102.826 103.389 102.826C104.823 102.826 106.219 103.034 107.578 103.449C108.937 103.827 109.937 104.204 110.578 104.581L111.484 105.147C112.164 105.6 112.692 105.959 113.069 106.223C114.051 106.978 114.541 107.846 114.541 108.827C114.541 109.771 114.145 110.846 113.352 112.054C111.994 114.13 110.692 115.168 109.446 115.168C108.729 115.168 107.71 114.752 106.389 113.922C105.71 113.281 104.729 112.96 103.445 112.96C102.2 112.96 101.03 113.413 99.9356 114.318C98.8411 115.224 98.2939 116.489 98.2939 118.111ZM134.968 113.186L131.289 112.96V120.772C131.289 121.791 131.44 122.527 131.742 122.98C132.081 123.433 132.685 123.659 133.553 123.659C134.459 123.659 135.138 123.697 135.591 123.772C136.082 123.81 136.591 123.98 137.12 124.282C137.988 124.773 138.422 126.037 138.422 128.075C138.422 130.453 137.893 131.906 136.837 132.434C136.27 132.698 135.761 132.868 135.308 132.943C134.893 132.981 134.27 133 133.44 133C129.515 133 126.533 132.113 124.495 130.339C122.457 128.565 121.438 125.565 121.438 121.338V112.96C120.721 113.073 119.948 113.13 119.117 113.13C118.287 113.13 117.589 112.809 117.023 112.167C116.494 111.526 116.23 110.431 116.23 108.884C116.23 107.336 116.325 106.223 116.513 105.544C116.702 104.827 116.966 104.317 117.306 104.015C117.91 103.525 118.665 103.279 119.57 103.279L121.438 103.506V97.6748C121.438 96.8068 121.457 96.1652 121.495 95.7501C121.571 95.3349 121.759 94.882 122.061 94.3914C122.552 93.4479 124.005 92.9761 126.42 92.9761C128.987 92.9761 130.515 93.6743 131.006 95.0707C131.194 95.6746 131.289 96.637 131.289 97.9579V103.506C132.949 103.355 134.195 103.279 135.025 103.279C135.893 103.279 136.535 103.317 136.95 103.393C137.403 103.43 137.912 103.6 138.478 103.902C139.46 104.393 139.95 105.846 139.95 108.261C139.95 110.639 139.441 112.092 138.422 112.62C137.856 112.884 137.346 113.054 136.893 113.13C136.478 113.167 135.836 113.186 134.968 113.186ZM142.227 118.111C142.227 113.582 143.812 109.846 146.982 106.902C150.153 103.959 153.776 102.487 157.852 102.487C161.928 102.487 165.532 103.959 168.664 106.902C171.797 109.808 173.363 113.526 173.363 118.055C173.363 121.187 172.552 123.98 170.929 126.433C169.306 128.849 167.324 130.641 164.985 131.811C162.682 132.943 160.286 133.509 157.795 133.509C155.304 133.509 152.889 132.906 150.549 131.698C148.209 130.453 146.228 128.641 144.605 126.263C143.02 123.848 142.227 121.131 142.227 118.111ZM154.059 122.187C155.266 123.093 156.493 123.546 157.738 123.546C158.984 123.546 160.229 123.074 161.475 122.131C162.72 121.187 163.343 119.791 163.343 117.942C163.343 116.092 162.758 114.715 161.588 113.809C160.418 112.903 159.154 112.45 157.795 112.45C156.436 112.45 155.172 112.922 154.002 113.866C152.832 114.809 152.247 116.205 152.247 118.055C152.247 119.866 152.851 121.244 154.059 122.187ZM193.608 103.166C197.382 103.166 200.514 104.619 203.005 107.525C205.534 110.393 206.798 113.903 206.798 118.055V128.018C206.798 128.886 206.76 129.547 206.685 130C206.647 130.415 206.496 130.887 206.232 131.415C205.703 132.434 204.231 132.943 201.816 132.943C199.137 132.943 197.589 132.245 197.174 130.849C196.948 130.207 196.834 129.245 196.834 127.962V117.998C196.834 116.451 196.381 115.243 195.476 114.375C194.608 113.507 193.419 113.073 191.909 113.073C190.437 113.073 189.23 113.526 188.286 114.432C187.38 115.337 186.927 116.526 186.927 117.998V128.018C186.927 128.886 186.89 129.547 186.814 130C186.776 130.415 186.607 130.887 186.305 131.415C185.814 132.434 184.361 132.943 181.946 132.943C179.568 132.943 178.115 132.434 177.587 131.415C177.322 130.849 177.153 130.358 177.077 129.943C177.039 129.49 177.021 128.83 177.021 127.962V107.921C177.021 107.091 177.039 106.468 177.077 106.053C177.153 105.6 177.341 105.11 177.643 104.581C178.172 103.638 179.625 103.166 182.002 103.166C184.304 103.166 185.72 103.6 186.248 104.468C186.626 105.11 186.814 105.883 186.814 106.789C186.965 106.525 187.305 106.148 187.833 105.657C188.362 105.166 188.871 104.77 189.362 104.468C190.645 103.6 192.06 103.166 193.608 103.166Z" fill="white"/>
</svg>
